<svg xmlns="http://www.w3.org/2000/svg" width="89.913" height="89.913" viewBox="0 0 89.913 89.913"><path d="M44.956,89.913A44.956,44.956,0,1,1,89.913,44.956,45.007,45.007,0,0,1,44.956,89.913Zm0,0" fill="#fe0050"/><path d="M256,0V89.913A44.956,44.956,0,0,0,256,0Zm0,0" transform="translate(-211.044)" fill="#e10555"/><path d="M115.029,145.059a30.029,30.029,0,1,1,30.029-30.029A30.064,30.064,0,0,1,115.029,145.059Zm0,0" transform="translate(-70.073 -70.073)" fill="#d9e7f3"/><path d="M256,85v60.059A30.029,30.029,0,0,0,256,85Zm0,0" transform="translate(-211.044 -70.073)" fill="#c8d4df"/><path d="M189.224,203.449a14.224,14.224,0,1,1,14.224-14.224A14.24,14.24,0,0,1,189.224,203.449Zm0,0" transform="translate(-144.268 -144.268)" fill="#fe0050"/><path d="M256,175v28.449A14.224,14.224,0,0,0,256,175Zm0,0" transform="translate(-211.044 -144.268)" fill="#e10555"/><path d="M243.634,155.331a2.634,2.634,0,0,1-1.862-4.5l19.371-19.371a2.634,2.634,0,0,1,3.725,3.725L245.5,154.559A2.624,2.624,0,0,1,243.634,155.331Zm0,0" transform="translate(-198.678 -107.741)" fill="#2d2d55"/><path d="M268.491,135.086l-23.1,23.1a2.633,2.633,0,0,0,3.725,0l19.371-19.371A2.633,2.633,0,0,0,268.491,135.086Zm0,0" transform="translate(-202.301 -111.363)" fill="#0a0a48"/><path d="M360.168,35.983c-.073,0-.147,0-.222-.009L349.64,35.1a2.635,2.635,0,0,1-2.4-2.4l-.87-10.307a2.634,2.634,0,0,1,.763-2.084L358.3,9.135a2.634,2.634,0,0,1,4.488,1.641l.682,8.09,8.09.683a2.634,2.634,0,0,1,1.641,4.488L362.03,35.211A2.634,2.634,0,0,1,360.168,35.983Zm0,0" transform="translate(-285.533 -6.894)" fill="#ffc300"/><path d="M379.269,68.851l-8.09-.683L355.7,83.644a2.63,2.63,0,0,0,1.641.763l10.307.869c.074.005.147.009.222.009a2.634,2.634,0,0,0,1.862-.772L380.91,73.338a2.634,2.634,0,0,0-1.641-4.488Zm0,0" transform="translate(-293.238 -56.197)" fill="#fab400"/></svg>