<svg xmlns="http://www.w3.org/2000/svg" width="89.25" height="93.257" viewBox="0 0 89.25 93.257"><g transform="translate(-10.998)"><path d="M88.643,96.641a44.683,44.683,0,1,0-3.251,3.224Z" transform="translate(0 -17.99)" fill="#1d2e79"/><g transform="translate(60.916 2.977)"><path d="M292.338,30.909a7.283,7.283,0,1,1,1.611-14.384,1.821,1.821,0,1,1-.8,3.553,3.64,3.64,0,1,0,0,7.1,1.821,1.821,0,1,1,.8,3.553,7.325,7.325,0,0,1-1.611.181Z" transform="translate(-285.056 -16.344)" fill="#ffd402"/></g><g transform="translate(40.779 2.765)"><path d="M175.778,30.17a1.275,1.275,0,0,1-1.275-1.275V16.456a1.275,1.275,0,1,1,2.55,0V28.895A1.275,1.275,0,0,1,175.778,30.17Z" transform="translate(-174.503 -15.181)" fill="#ffd402"/></g><path d="M376.828,280.182a8.986,8.986,0,1,0,8.986,8.986A9,9,0,0,0,376.828,280.182Z" transform="translate(-291.848 -229.149)" fill="#fea2c8"/><path d="M376.828,104.969a8.986,8.986,0,1,0,8.986,8.986A9,9,0,0,0,376.828,104.969Z" transform="translate(-291.848 -85.85)" fill="#ade9f7"/><path d="M94.418,261.333a1.821,1.821,0,0,0-2.444.815L81.481,283.133l-7.974,7.974v2.576h2.576l8.183-8.183a1.82,1.82,0,0,0,.341-.473l10.625-21.25A1.822,1.822,0,0,0,94.418,261.333Z" transform="translate(-51.123 -213.575)" fill="#27a6ff"/><g transform="translate(40.658 47.565)"><path d="M196.911,275.411a1.815,1.815,0,0,1-1.288-.534l-10.091-10.091h-9.87a1.821,1.821,0,0,1,0-3.643h10.625a1.822,1.822,0,0,1,1.288.534L198.2,272.3a1.821,1.821,0,0,1-1.288,3.109Z" transform="translate(-173.84 -261.143)" fill="#02c0fc"/></g><g transform="translate(61.908 36.94)"><path d="M292.325,227.7a1.822,1.822,0,0,1-1.628-2.637l10.625-21.25a1.822,1.822,0,0,1,3.258,1.629l-10.625,21.25A1.821,1.821,0,0,1,292.325,227.7Z" transform="translate(-290.505 -202.806)" fill="#2fd0e2"/></g><g transform="translate(72.533 26.315)"><path d="M350.661,158.745a1.821,1.821,0,0,1-1.288-3.109L360,145.011a1.821,1.821,0,0,1,2.576,2.576l-10.625,10.625A1.817,1.817,0,0,1,350.661,158.745Z" transform="translate(-348.839 -144.477)" fill="#2fd0e2"/></g><path d="M93.6,319.476h-20.1v3.643H93.6a1.821,1.821,0,1,0,0-3.643Z" transform="translate(-51.123 -261.286)" fill="#ff0363"/><g transform="translate(40.658 58.19)"><path d="M186.286,333.744A1.815,1.815,0,0,1,185,333.21l-10.625-10.625a1.821,1.821,0,0,1,2.576-2.576l10.625,10.625a1.822,1.822,0,0,1-1.288,3.11Z" transform="translate(-173.839 -319.476)" fill="#ff0363"/></g><g transform="translate(51.283 36.94)"><path d="M233.992,238.326a1.823,1.823,0,0,1-1.728-2.4l10.625-31.875a1.821,1.821,0,0,1,3.456,1.152L235.72,237.08a1.822,1.822,0,0,1-1.728,1.246Z" transform="translate(-232.17 -202.807)" fill="#fe3d97"/></g><g transform="translate(61.908 36.94)"><path d="M313.578,227.7a1.815,1.815,0,0,1-1.288-.533l-21.25-21.25a1.822,1.822,0,0,1,2.576-2.576l21.25,21.25a1.821,1.821,0,0,1-1.288,3.109Z" transform="translate(-290.506 -202.809)" fill="#ff74a6"/></g><circle cx="4.068" cy="4.068" r="4.068" transform="translate(80.098 31.153) rotate(-76.7)" fill="#2fd0e2"/><circle cx="4.068" cy="4.068" r="4.068" transform="translate(79.214 60.021) rotate(-45)" fill="#fe3d97"/><g transform="translate(29.522 8.438)"><path d="M116.9,49.97h-2.381a1.821,1.821,0,1,1,0-3.643H116.9a1.821,1.821,0,1,1,0,3.643Z" transform="translate(-112.697 -46.327)" fill="#02c0fc"/></g><g transform="translate(38.132 4.134)"><path d="M163.914,34.947a4.7,4.7,0,0,1-3-.857,1.275,1.275,0,0,1,1.4-2.134,2.3,2.3,0,0,0,1.7.44,1.24,1.24,0,0,0,1.246-1.111.86.86,0,0,0-.757-1.006l-1.809-.436a3.382,3.382,0,0,1-2.693-3.779,3.771,3.771,0,0,1,3.763-3.367,4.776,4.776,0,0,1,3.115.856,1.275,1.275,0,1,1-1.4,2.134,2.3,2.3,0,0,0-1.7-.44,1.239,1.239,0,0,0-1.247,1.11.861.861,0,0,0,.757,1.008l1.809.436a3.381,3.381,0,0,1,2.692,3.777,3.772,3.772,0,0,1-3.762,3.369Z" transform="translate(-159.968 -22.696)" fill="#fef156"/></g><g transform="translate(50.916 8.438)"><path d="M234.36,49.97h-2.381a1.821,1.821,0,1,1,0-3.643h2.381a1.821,1.821,0,1,1,0,3.643Z" transform="translate(-230.157 -46.327)" fill="#ff74a6"/></g><g transform="translate(59.441 8.438)"><path d="M285.716,49.969H278.78a1.821,1.821,0,0,1,0-3.643h6.936a1.821,1.821,0,0,1,0,3.643Z" transform="translate(-276.959 -46.326)" fill="#fef156"/></g><g transform="translate(20.926)"><path d="M66.963,89.73a1.457,1.457,0,0,1-1.457-1.457V1.457a1.457,1.457,0,1,1,2.914,0V88.273A1.457,1.457,0,0,1,66.963,89.73Z" transform="translate(-65.506)" fill="#3f57a0"/></g><path d="M22.137,431.81a1.457,1.457,0,1,0,0,2.914H93.653q1.52-1.39,2.908-2.914Z" transform="translate(-7.919 -353.159)" fill="#3f57a0"/><g transform="translate(17.489 5.43)"><path d="M51.348,32.724H48.093a1.457,1.457,0,0,1,0-2.914h3.255a1.457,1.457,0,0,1,0,2.914Z" transform="translate(-46.636 -29.81)" fill="#6289cd"/></g><g transform="translate(18.764 16.055)"><path d="M57.073,91.057h-1.98a1.457,1.457,0,1,1,0-2.914h1.98a1.457,1.457,0,0,1,0,2.914Z" transform="translate(-53.636 -88.143)" fill="#5071b7"/></g><g transform="translate(18.764 58.554)"><path d="M57.073,324.39h-1.98a1.457,1.457,0,1,1,0-2.914h1.98a1.457,1.457,0,1,1,0,2.914Z" transform="translate(-53.636 -321.476)" fill="#5071b7"/></g><g transform="translate(18.764 37.304)"><path d="M57.073,207.723h-1.98a1.457,1.457,0,1,1,0-2.914h1.98a1.457,1.457,0,1,1,0,2.914Z" transform="translate(-53.636 -204.809)" fill="#5071b7"/></g><g transform="translate(17.489 26.68)"><path d="M51.348,149.39H48.093a1.457,1.457,0,1,1,0-2.914h3.255a1.457,1.457,0,0,1,0,2.914Z" transform="translate(-46.636 -146.476)" fill="#6289cd"/></g><g transform="translate(17.489 69.18)"><path d="M51.348,382.724H48.093a1.457,1.457,0,1,1,0-2.914h3.255a1.457,1.457,0,1,1,0,2.914Z" transform="translate(-46.636 -379.81)" fill="#6289cd"/></g><g transform="translate(17.489 47.93)"><path d="M51.348,266.057H48.093a1.457,1.457,0,1,1,0-2.914h3.255a1.457,1.457,0,1,1,0,2.914Z" transform="translate(-46.636 -263.143)" fill="#6289cd"/></g><g transform="translate(83.523 78.833)"><path d="M410.63,437.7a1.457,1.457,0,0,1-1.457-1.457v-1.98a1.457,1.457,0,1,1,2.914,0v1.98A1.457,1.457,0,0,1,410.63,437.7Z" transform="translate(-409.173 -432.81)" fill="#5071b7"/></g><g transform="translate(41.023 78.833)"><path d="M177.3,437.7a1.457,1.457,0,0,1-1.457-1.457v-1.98a1.457,1.457,0,1,1,2.914,0v1.98A1.457,1.457,0,0,1,177.3,437.7Z" transform="translate(-175.84 -432.81)" fill="#5071b7"/></g><g transform="translate(62.273 78.833)"><path d="M293.963,437.7a1.457,1.457,0,0,1-1.457-1.457v-1.98a1.457,1.457,0,1,1,2.914,0v1.98A1.457,1.457,0,0,1,293.963,437.7Z" transform="translate(-292.506 -432.81)" fill="#5071b7"/></g><g transform="translate(72.898 78.833)"><path d="M352.3,438.979a1.457,1.457,0,0,1-1.457-1.457v-3.255a1.457,1.457,0,1,1,2.914,0v3.255A1.457,1.457,0,0,1,352.3,438.979Z" transform="translate(-350.84 -432.81)" fill="#6289cd"/></g><g transform="translate(30.398 78.833)"><path d="M118.963,438.979a1.457,1.457,0,0,1-1.457-1.457v-3.255a1.457,1.457,0,1,1,2.914,0v3.255A1.457,1.457,0,0,1,118.963,438.979Z" transform="translate(-117.506 -432.81)" fill="#6289cd"/></g><g transform="translate(51.648 78.833)"><path d="M235.63,438.979a1.457,1.457,0,0,1-1.457-1.457v-3.255a1.457,1.457,0,1,1,2.914,0v3.255A1.457,1.457,0,0,1,235.63,438.979Z" transform="translate(-234.173 -432.81)" fill="#6289cd"/></g><ellipse cx="15.037" cy="8.546" rx="15.037" ry="8.546" transform="translate(30.679 24.511) rotate(-12.647)" fill="#2a428b"/></g></svg>