<svg xmlns="http://www.w3.org/2000/svg" width="89.913" height="93.949" viewBox="0 0 89.913 93.949"><g transform="translate(-10.999)"><path d="M72.434,38.981H39.476a44.974,44.974,0,0,0,2.179,84.472l5.163,1.393a44.986,44.986,0,0,0,6.82.871h4.636a44.987,44.987,0,0,0,6.82-.871l5.163-1.393a44.973,44.973,0,0,0,2.178-84.472Z" transform="translate(0 -31.828)" fill="#ff4155"/><path d="M271.457,453.738a2.043,2.043,0,0,1-1.422.577h-2.371V456.5l7,7a44.608,44.608,0,0,0,5.163-1.393Z" transform="translate(-209.569 -370.48)" fill="#bec8f7"/><path d="M275.527,457.807l-4.069-4.069a2.043,2.043,0,0,1-1.422.577h-2.371V456.5l4.174,4.174S271.472,456.817,275.527,457.807Z" transform="translate(-209.569 -370.48)" fill="#a2b1ea"/><path d="M186.434,453.738l-8.367,8.367a44.608,44.608,0,0,0,5.163,1.393l7-7v-2.187h-2.371A2.044,2.044,0,0,1,186.434,453.738Z" transform="translate(-136.412 -370.48)" fill="#bec8f7"/><path d="M210.871,454.315H208.5a2.043,2.043,0,0,1-1.422-.577l-3.728,3.728s3.229-.6,3.347,3.209l4.174-4.174Z" transform="translate(-157.056 -370.48)" fill="#a2b1ea"/><path d="M243.367,466.935q1.152.058,2.318.059t2.318-.059V456.88h-4.636v10.055Z" transform="translate(-189.73 -373.045)" fill="#bec8f7"/><path d="M243.368,366.322H248v12.514h-4.636Z" transform="translate(-189.731 -299.104)" fill="#d3dcfb"/><path d="M245.686,400.5a2.713,2.713,0,0,1-2.318-1.3v6.483H248v-6.483A2.714,2.714,0,0,1,245.686,400.5Z" transform="translate(-189.731 -325.943)" fill="#bec8f7"/><path d="M232.442,435.385a2.318,2.318,0,0,0-2.318-2.318H221.1a2.318,2.318,0,0,0,0,4.636h9.022A2.318,2.318,0,0,0,232.442,435.385Z" transform="translate(-169.659 -353.602)" fill="#e9efff"/><path d="M226.256,435.385a2.318,2.318,0,0,1,2.318-2.318H221.1a2.318,2.318,0,0,0,0,4.636h7.471A2.318,2.318,0,0,1,226.256,435.385Z" transform="translate(-169.659 -353.602)" fill="#d3dcfb"/><path d="M248,5.949V2.318a2.318,2.318,0,0,0-4.636,0V5.949Z" transform="translate(-189.731)" fill="#d3dcfb"/><g transform="translate(18.928 12.871)"><path d="M54.208,70.145h74.055v50.566H54.208Z" transform="translate(-54.208 -70.145)" fill="#e9efff"/></g><path d="M54.208,70.145h17.37v50.566H54.208Z" transform="translate(-35.28 -57.274)" fill="#d3dcfb"/><g transform="translate(67.856 20.861)"><path d="M328.531,127.1h-6.263a1.409,1.409,0,0,1-1.409-1.409V115.1a1.409,1.409,0,0,1,1.409-1.409h6.263a1.409,1.409,0,1,1,0,2.818h-4.854v7.772h4.854a1.409,1.409,0,1,1,0,2.818Z" transform="translate(-320.859 -113.688)" fill="#56c2ff"/></g><g transform="translate(67.856 42.04)"><path d="M328.531,242.518h-6.263a1.409,1.409,0,0,1-1.409-1.409v-10.59a1.409,1.409,0,0,1,1.409-1.409h6.263a1.409,1.409,0,1,1,0,2.818h-4.854V239.7h4.854a1.409,1.409,0,1,1,0,2.818Z" transform="translate(-320.859 -229.11)" fill="#56c2ff"/></g><g transform="translate(61.092 26.156)"><path d="M292.168,166.54H285.4a1.409,1.409,0,0,1-1.409-1.409V143.952a1.409,1.409,0,0,1,1.409-1.409h6.764a1.409,1.409,0,1,1,0,2.818h-5.355v18.361h5.355a1.409,1.409,0,0,1,0,2.818Z" transform="translate(-283.994 -142.543)" fill="#1e9ef4"/></g><g transform="translate(34.973 20.861)"><path d="M149.324,127.1h-6.263a1.409,1.409,0,1,1,0-2.818h4.854v-7.772h-4.854a1.409,1.409,0,1,1,0-2.818h6.263a1.409,1.409,0,0,1,1.409,1.409v10.59A1.409,1.409,0,0,1,149.324,127.1Z" transform="translate(-141.652 -113.688)" fill="#56c2ff"/></g><g transform="translate(34.973 42.04)"><path d="M149.324,242.518h-6.263a1.409,1.409,0,1,1,0-2.818h4.854v-7.772h-4.854a1.409,1.409,0,1,1,0-2.818h6.263a1.409,1.409,0,0,1,1.409,1.409v10.59A1.409,1.409,0,0,1,149.324,242.518Z" transform="translate(-141.652 -229.11)" fill="#56c2ff"/></g><g transform="translate(41.236 26.156)"><path d="M183.957,166.54h-6.764a1.409,1.409,0,0,1,0-2.818h5.355V145.361h-5.355a1.409,1.409,0,0,1,0-2.818h6.764a1.409,1.409,0,0,1,1.409,1.409v21.179A1.409,1.409,0,0,1,183.957,166.54Z" transform="translate(-175.783 -142.543)" fill="#1e9ef4"/></g><g transform="translate(48 36.745)"><path d="M227.149,203.071H214.057a1.409,1.409,0,1,1,0-2.818h13.092a1.409,1.409,0,0,1,0,2.818Z" transform="translate(-212.648 -200.253)" fill="#56c2ff"/></g><g transform="translate(54.546 26.907)"><path d="M249.73,159.294a1.409,1.409,0,0,1-1.409-1.409v-9.838a1.409,1.409,0,1,1,2.818,0v9.838A1.409,1.409,0,0,1,249.73,159.294Z" transform="translate(-248.321 -146.638)" fill="#ffb332"/></g><g transform="translate(50.365 21.982)"><path d="M235.306,122.614h-8.362a1.409,1.409,0,0,1,0-2.818h8.362a1.409,1.409,0,0,1,0,2.818Z" transform="translate(-225.535 -119.796)" fill="#ffdd40"/></g><g transform="translate(53.82 17.473)"><path d="M247.224,98.04h-1.453a1.409,1.409,0,1,1,0-2.818h1.453a1.409,1.409,0,0,1,0,2.818Z" transform="translate(-244.362 -95.222)" fill="#d3dcfb"/></g><path d="M115.133,348.419H39.446a2.318,2.318,0,1,1,0-4.636h75.687a2.318,2.318,0,1,1,0,4.636Z" transform="translate(-21.334 -280.701)" fill="#d3dcfb"/><path d="M55.538,346.1a2.318,2.318,0,0,1,2.318-2.318H39.446a2.318,2.318,0,1,0,0,4.636h18.41A2.318,2.318,0,0,1,55.538,346.1Z" transform="translate(-21.334 -280.701)" fill="#bec8f7"/><path d="M115.957,37.474H38.622a1.494,1.494,0,0,1-1.494-1.494V31.191A1.494,1.494,0,0,1,38.622,29.7h77.335a1.494,1.494,0,0,1,1.494,1.494V35.98A1.494,1.494,0,0,1,115.957,37.474Z" transform="translate(-21.334 -24.248)" fill="#6279dd"/><path d="M392.3,35.98V31.191a1.494,1.494,0,0,0-1.494-1.494H375.24a1.494,1.494,0,0,0-1.494,1.494V35.98a1.494,1.494,0,0,0,1.494,1.494h15.568A1.494,1.494,0,0,0,392.3,35.98Z" transform="translate(-296.185 -24.248)" fill="#8199ef"/><path d="M56.137,35.98V31.191A1.494,1.494,0,0,1,57.632,29.7H38.622a1.494,1.494,0,0,0-1.494,1.494V35.98a1.494,1.494,0,0,0,1.494,1.494H57.632A1.494,1.494,0,0,1,56.137,35.98Z" transform="translate(-21.334 -24.248)" fill="#4e5fc6"/><path d="M366.861,112.292h-4.635a2.63,2.63,0,0,1,0-5.261h4.635a2.63,2.63,0,0,1,0,5.261Z" transform="translate(-284.632 -87.391)" fill="#ff9e54"/><path d="M366.861,170h-4.635a2.63,2.63,0,0,1,0-5.261h4.635a2.63,2.63,0,0,1,0,5.261Z" transform="translate(-284.632 -134.513)" fill="#ffdd40"/><path d="M366.861,227.714h-4.635a2.63,2.63,0,0,1,0-5.261h4.635a2.63,2.63,0,0,1,0,5.261Z" transform="translate(-284.632 -181.634)" fill="#6279dd"/><path d="M366.861,285.425h-4.635a2.63,2.63,0,0,1,0-5.261h4.635a2.63,2.63,0,1,1,0,5.261Z" transform="translate(-284.632 -228.756)" fill="#86d8fc"/><path d="M364.545,109.661a2.628,2.628,0,0,1,2.474-2.622c-.052,0-.1-.008-.157-.008h-4.634a2.63,2.63,0,0,0,0,5.261h4.634c.053,0,.1,0,.157-.008A2.628,2.628,0,0,1,364.545,109.661Z" transform="translate(-284.632 -87.391)" fill="#ff8743"/><path d="M364.545,167.372a2.628,2.628,0,0,1,2.474-2.622c-.052,0-.1-.008-.157-.008h-4.634a2.63,2.63,0,0,0,0,5.261h4.634c.053,0,.1,0,.157-.008a2.628,2.628,0,0,1-2.474-2.622Z" transform="translate(-284.632 -134.513)" fill="#ffb332"/><path d="M364.545,225.083a2.628,2.628,0,0,1,2.474-2.622c-.052,0-.1-.008-.157-.008h-4.634a2.63,2.63,0,0,0,0,5.261h4.634c.053,0,.1,0,.157-.008A2.628,2.628,0,0,1,364.545,225.083Z" transform="translate(-284.632 -181.634)" fill="#4e5fc6"/><path d="M364.545,282.794a2.628,2.628,0,0,1,2.474-2.622c-.052,0-.1-.008-.157-.008h-4.634a2.63,2.63,0,0,0,0,5.261h4.634c.053,0,.1,0,.157-.008A2.628,2.628,0,0,1,364.545,282.794Z" transform="translate(-284.632 -228.756)" fill="#56c2ff"/><path d="M101.107,112.292h4.634a2.63,2.63,0,0,0,0-5.261h-4.634a2.63,2.63,0,1,0,0,5.261Z" transform="translate(-71.426 -87.391)" fill="#ff4155"/><path d="M101.107,170h4.634a2.63,2.63,0,1,0,0-5.261h-4.634a2.63,2.63,0,1,0,0,5.261Z" transform="translate(-71.426 -134.513)" fill="#4e5fc6"/><path d="M101.107,227.714h4.634a2.63,2.63,0,1,0,0-5.261h-4.634a2.63,2.63,0,1,0,0,5.261Z" transform="translate(-71.426 -181.634)" fill="#ffb332"/><path d="M101.107,285.425h4.634a2.63,2.63,0,1,0,0-5.261h-4.634a2.63,2.63,0,1,0,0,5.261Z" transform="translate(-71.426 -228.756)" fill="#ff4155"/><g transform="translate(16.522 70.446)"><path d="M341.7,384.064c-7.483-.329-27.314-.64-28.814,5.211s5.029,11.731,8.057,14.088A45.145,45.145,0,0,0,341.7,384.064Z" transform="translate(-262.836 -383.914)" fill="#ff7186"/><path d="M69.914,389.274c-1.5-5.85-21.331-5.54-28.814-5.211a45.14,45.14,0,0,0,20.757,19.3C64.885,401.005,71.415,395.128,69.914,389.274Z" transform="translate(-41.1 -383.914)" fill="#ff7186"/></g></g></svg>