<svg xmlns="http://www.w3.org/2000/svg" width="68.48" height="68.48" viewBox="0 0 68.48 68.48"><g transform="translate(-605.546 -1519)"><circle cx="34.24" cy="34.24" r="34.24" transform="translate(605.546 1519)" fill="#f9f9f9"/><g transform="translate(617.966 1531)"><g transform="translate(2.58 2)"><path d="M5.749,7.709A2.535,2.535,0,0,1,8.283,5.175H29.31V4.534A2.527,2.527,0,0,0,26.776,2H5.12A2.536,2.536,0,0,0,2.58,4.534V36.062A2.535,2.535,0,0,0,5.114,38.6h.635Z" transform="translate(-2.58 -2)" fill="#8aba55"/></g><g transform="translate(19.117 2)" opacity="0.3"><path d="M36.019,2H28.36a2.19,2.19,0,0,0,2.187,2.187h5.818V8.44a2.19,2.19,0,0,0,2.187,2.187h.006V4.534A2.536,2.536,0,0,0,36.019,2Z" transform="translate(-28.36 -2)" fill="#fff"/></g><g transform="translate(5.755 5.169)"><path d="M31.72,6.94H10.064A2.535,2.535,0,0,0,7.53,9.474V41a2.535,2.535,0,0,0,2.534,2.534H31.726A2.535,2.535,0,0,0,34.26,41V9.48a2.538,2.538,0,0,0-2.54-2.54Z" transform="translate(-7.53 -6.94)" fill="#e2e2e2"/></g><g transform="translate(8.43 18.075)"><path d="M11.7,27.06h5.318v5.318H11.7Z" transform="translate(-11.7 -27.06)" fill="#ef4a51"/></g><g transform="translate(8.43 25.696)"><path d="M11.7,38.94h5.318v5.318H11.7Z" transform="translate(-11.7 -38.94)" fill="#ffab03"/></g><g transform="translate(8.43 33.323)"><path d="M11.7,50.83h5.318v5.318H11.7Z" transform="translate(-11.7 -50.83)" fill="#7cb5e8"/></g><g transform="translate(8.43 33.323)"><path d="M11.7,50.83h5.318v5.318H11.7Z" transform="translate(-11.7 -50.83)" fill="#7cb5e8"/></g><g transform="translate(10.355 33.323)" opacity="0.3"><path d="M14.7,52.94a1.287,1.287,0,0,0,1.283,1.283h2.11V50.83H14.7Z" transform="translate(-14.7 -50.83)" fill="#fff"/></g><g transform="translate(10.355 25.696)" opacity="0.3"><path d="M14.7,41.05a1.287,1.287,0,0,0,1.283,1.283h2.11V38.94H14.7Z" transform="translate(-14.7 -38.94)" fill="#fff"/></g><g transform="translate(10.355 18.069)" opacity="0.3"><path d="M14.7,29.16a1.287,1.287,0,0,0,1.283,1.283h2.11V27.05H14.7Z" transform="translate(-14.7 -27.05)" fill="#fff"/></g><g transform="translate(14.492 5.169)" opacity="0.3"><path d="M36.6,6.94H21.15V15A10.617,10.617,0,0,0,31.766,25.62h7.377V9.48A2.538,2.538,0,0,0,36.6,6.94Z" transform="translate(-21.15 -6.94)" fill="#fff"/></g><g transform="translate(20.278 5.175)" opacity="0.5"><path d="M39.837,6.95H30.17a2.62,2.62,0,0,0,2.617,2.617h6.966v5.093a2.62,2.62,0,0,0,2.617,2.617h.006V9.484A2.536,2.536,0,0,0,39.837,6.95Z" transform="translate(-30.17 -6.95)" fill="#fff"/></g><g transform="translate(19.355 16.465)"><circle cx="8.249" cy="8.249" r="8.249" fill="#fff"/></g><g transform="translate(21.449 18.563)"><path d="M38.15,40.136a6.158,6.158,0,1,0-4.356-1.8A6.118,6.118,0,0,0,38.15,40.136Z" transform="translate(-31.995 -27.82)" fill="#7cb5e8"/></g><g transform="translate(23.451 18.556)" opacity="0.3"><path d="M39.269,27.81a6.116,6.116,0,0,0-3.233.924,6.155,6.155,0,0,0,8.474,8.474,6.154,6.154,0,0,0-5.241-9.4Z" transform="translate(-35.116 -27.81)" fill="#fff"/></g><g transform="translate(33.852 30.956)"><path d="M53.453,47.506,51.7,49.263a1.887,1.887,0,0,1-.366.276L56.186,54.4a1.7,1.7,0,0,0,2.4-2.4L53.729,47.14A1.711,1.711,0,0,1,53.453,47.506Z" transform="translate(-51.33 -47.14)" fill="#ef4a51"/></g><g transform="translate(34.833 30.962)" opacity="0.3"><path d="M54.278,47.15a1.847,1.847,0,0,1-.276.359L52.86,48.651l3.881,3.881a1.7,1.7,0,0,0,2.4,0,2.061,2.061,0,0,0,.218-.263,2.061,2.061,0,0,0-.218-.263Z" transform="translate(-52.86 -47.15)" fill="#e2e2e2"/></g><g transform="translate(30.753 27.864)"><path d="M49.188,45.008a8.086,8.086,0,0,0,1.79-2.688l.744.744a1.924,1.924,0,0,1,0,2.72l-1.758,1.758a1.924,1.924,0,0,1-2.72,0L46.5,46.8A8.354,8.354,0,0,0,49.188,45.008Z" transform="translate(-46.5 -42.32)" fill="#4e6575"/></g><g transform="translate(31.652 27.858)" opacity="0.3"><path d="M50.459,46.21l1.758-1.758a1.931,1.931,0,0,0,.443-.7,1.931,1.931,0,0,0-.443-.7l-.744-.744A8.354,8.354,0,0,1,49.683,45,8.1,8.1,0,0,1,47.9,46.345a1.924,1.924,0,0,0,2.559-.135Z" transform="translate(-47.9 -42.31)" fill="#e2e2e2"/></g><g transform="translate(16.16 7.093)"><path d="M26.707,9.94l.917,1.854,2.046.3-1.482,1.443.346,2.04-1.828-.962-1.828.962.346-2.04L23.75,12.089l2.04-.3Z" transform="translate(-23.75 -9.94)" fill="#ffab03"/></g><g transform="translate(17.7 7.093)" opacity="0.3"><path d="M28.485,11.794,27.568,9.94l-.917,1.854-.5.071a2.972,2.972,0,0,0,2.867,2.226c.038,0,.077-.013.115-.013l-.1-.545,1.482-1.443Z" transform="translate(-26.15 -9.94)" fill="#fff"/></g><g transform="translate(9.694 9.351)"><path d="M16.634,13.46l.911,1.854,2.046.3-1.482,1.443.353,2.04-1.828-.962-1.835.962.353-2.04L13.67,15.609l2.046-.3Z" transform="translate(-13.67 -13.46)" fill="#ffab03"/></g><g transform="translate(11.233 9.351)" opacity="0.3"><path d="M18.4,15.314l-.917-1.854-.917,1.854-.5.071a2.972,2.972,0,0,0,2.867,2.226c.038,0,.077-.013.115-.013l-.1-.545,1.482-1.443Z" transform="translate(-16.07 -13.46)" fill="#fff"/></g><g transform="translate(22.62 9.351)"><path d="M36.784,13.46l.911,1.854,2.046.3-1.482,1.443.353,2.04-1.828-.962-1.835.962.353-2.04L33.82,15.609l2.046-.3Z" transform="translate(-33.82 -13.46)" fill="#ffab03"/></g><g transform="translate(24.159 9.351)" opacity="0.3"><path d="M38.555,15.314l-.917-1.854-.917,1.854-.5.071a2.972,2.972,0,0,0,2.867,2.226c.038,0,.077-.013.115-.013l-.1-.545,1.482-1.443Z" transform="translate(-36.22 -13.46)" fill="#fff"/></g><g transform="translate(16.263 35.838)"><path d="M29.523,55.712H24.391a.481.481,0,1,1,0-.962h5.132a.481.481,0,0,1,0,.962Z" transform="translate(-23.91 -54.75)" fill="#5e7588"/></g><g transform="translate(23.749 35.838)"><path d="M37.28,55.712H36.061a.481.481,0,1,1,0-.962H37.28a.481.481,0,1,1,0,.962Z" transform="translate(-35.58 -54.75)" fill="#5e7588"/></g><g transform="translate(16.263 38.16)"><path d="M29.523,59.332H24.391a.481.481,0,1,1,0-.962h5.132a.481.481,0,1,1,0,.962Z" transform="translate(-23.91 -58.37)" fill="#5e7588"/></g><g transform="translate(23.749 38.16)"><path d="M37.28,59.332H36.061a.481.481,0,1,1,0-.962H37.28a.481.481,0,1,1,0,.962Z" transform="translate(-35.58 -58.37)" fill="#5e7588"/></g><g transform="translate(9.433 19.45)"><path d="M14.505,31.76a.476.476,0,0,1-.34-.141l-.763-.763a.481.481,0,0,1,.68-.68l.417.417,1.251-1.251a.481.481,0,1,1,.68.68l-1.591,1.591a.435.435,0,0,1-.334.148Z" transform="translate(-13.262 -29.202)" fill="#5e7588"/></g><g transform="translate(9.433 27.077)"><path d="M14.505,43.65a.481.481,0,0,1-.34-.141l-.763-.763a.481.481,0,1,1,.68-.68l.417.417,1.251-1.251a.481.481,0,0,1,.68.68L14.839,43.5a.438.438,0,0,1-.334.148Z" transform="translate(-13.262 -41.092)" fill="#5e7588"/></g><g transform="translate(9.433 34.704)"><path d="M14.505,55.54a.481.481,0,0,1-.34-.141l-.763-.763a.481.481,0,0,1,.68-.68l.417.417,1.251-1.251a.481.481,0,1,1,.68.68l-1.591,1.591a.438.438,0,0,1-.334.148Z" transform="translate(-13.262 -52.982)" fill="#5e7588"/></g><g transform="translate(24.43 22.285)"><path d="M38.6,38.5a.476.476,0,0,1-.34-.141L36.782,36.88a.481.481,0,1,1,.68-.68L38.6,37.335l3.573-3.573a.481.481,0,0,1,.68.68l-3.913,3.913a.481.481,0,0,1-.34.141Z" transform="translate(-36.643 -33.622)" fill="#5e7588"/></g></g></g></svg>