<svg xmlns="http://www.w3.org/2000/svg" width="68.48" height="68.48" viewBox="0 0 68.48 68.48"><g transform="translate(-605.546 -1623)"><circle cx="34.24" cy="34.24" r="34.24" transform="translate(605.546 1623)" fill="#f9f9f9"/><g transform="translate(620.546 1638)"><path d="M114.893,60l-9.182,9.751-9.1-3.413-6.5,6.744a.8.8,0,0,0,1.138,1.138l5.769-6.013L106.2,71.7l9.832-10.563A1.294,1.294,0,0,1,114.893,60Z" transform="translate(-83.021 -55.429)" fill="#e8eae9"/><rect width="7.069" height="7.069" transform="translate(31.125 26.184) rotate(135)" fill="#344a5e"/><path d="M25.291,25.291a14.824,14.824,0,1,1,0-20.964A14.86,14.86,0,0,1,25.291,25.291ZM6.683,6.683a11.434,11.434,0,1,0,16.17,0A11.427,11.427,0,0,0,6.683,6.683Z" transform="translate(0 0)" fill="#415a6b"/><path d="M328.5,328.5h0a5,5,0,0,1-7.069,0l-6.5-6.5L322,314.934l6.5,6.5A5,5,0,0,1,328.5,328.5Z" transform="translate(-290.943 -290.943)" fill="#f3705a"/><rect width="3.413" height="10.075" transform="translate(26.34 33.477) rotate(-135)" fill="#f05540"/><path d="M302.447,295.378l-7.069,7.069a1.666,1.666,0,0,1-2.356-2.356l7.069-7.069a1.666,1.666,0,0,1,2.356,2.356Z" transform="translate(-270.25 -270.25)" fill="#e8eae9"/><circle cx="2.519" cy="2.519" r="2.519" transform="translate(29.841 2.539)" fill="#f3705a"/><circle cx="1.463" cy="1.463" r="1.463" transform="translate(30.897 3.596)" fill="#f05540"/><circle cx="2.519" cy="2.519" r="2.519" transform="translate(20.497 12.777)" fill="#ffd15c"/><circle cx="1.463" cy="1.463" r="1.463" transform="translate(21.553 13.834)" fill="#f7b64c"/><circle cx="2.519" cy="2.519" r="2.519" transform="translate(11.315 9.365)" fill="#8ad7f8"/><circle cx="1.463" cy="1.463" r="1.463" transform="translate(12.371 10.421)" fill="#55c0eb"/></g></g></svg>