<svg xmlns="http://www.w3.org/2000/svg" width="89.913" height="89.913" viewBox="0 0 89.913 89.913"><g transform="translate(-0.001)"><path d="M218.9,151H211v60.761a2.634,2.634,0,0,0,2.634,2.634h10.537a2.634,2.634,0,0,0,2.634-2.634V151Z" transform="translate(-173.946 -124.483)" fill="#aa3c6e"/><path d="M263.9,211.761V151H256v63.4h5.268A2.634,2.634,0,0,0,263.9,211.761Z" transform="translate(-211.043 -124.483)" fill="#7e325f"/><path d="M71.3,241H18.44a2.632,2.632,0,0,0-1.862.772l-15.8,15.8a2.633,2.633,0,0,0,0,3.725l15.8,15.8a2.632,2.632,0,0,0,1.862.772H71.3a2.633,2.633,0,0,0,2.634-2.634v-31.61A2.633,2.633,0,0,0,71.3,241Z" transform="translate(0 -198.678)" fill="#ff6e7c"/><path d="M284.976,275.244v-31.61A2.633,2.633,0,0,0,282.342,241H256v36.878h26.342A2.633,2.633,0,0,0,284.976,275.244Z" transform="translate(-211.043 -198.678)" fill="#ff468c"/><path d="M164.16,16.752,148.355.772A2.632,2.632,0,0,0,146.493,0H93.634A2.633,2.633,0,0,0,91,2.634V34.42a2.633,2.633,0,0,0,2.634,2.634h52.859a2.632,2.632,0,0,0,1.862-.772l15.8-15.8A2.633,2.633,0,0,0,164.16,16.752Z" transform="translate(-75.019)" fill="#b4eb91"/><path d="M284.38,36.282l15.8-15.8a2.633,2.633,0,0,0,0-3.725L284.38.772A2.632,2.632,0,0,0,282.517,0H256V37.054h26.517A2.632,2.632,0,0,0,284.38,36.282Z" transform="translate(-211.043 0)" fill="#96d778"/><g transform="translate(52.86 12.032)"><path d="M307.041,82.228l-5.268-5.268a2.634,2.634,0,0,1,3.725-3.725l3.069,3.069,4.78-6.688a2.633,2.633,0,1,1,4.286,3.061l-6.585,9.22A2.633,2.633,0,0,1,307.041,82.228Z" transform="translate(-301.001 -68.514)" fill="#b5efff"/></g><path d="M139.874,316.149l1.862-1.862a2.634,2.634,0,1,0-3.725-3.725l-1.862,1.862-1.862-1.862a2.634,2.634,0,1,0-3.725,3.725l1.862,1.862-1.862,1.862a2.634,2.634,0,1,0,3.725,3.725l1.862-1.862,1.862,1.862a2.634,2.634,0,1,0,3.725-3.725Z" transform="translate(-106.997 -255.387)" fill="#e3fbff"/></g></svg>