<svg xmlns="http://www.w3.org/2000/svg" width="89.913" height="89.913" viewBox="0 0 89.913 89.913"><g transform="translate(-4 -4)"><g transform="translate(4 4)"><g transform="translate(12.845 6.422)"><path d="M63.379,8H26.706a15.942,15.942,0,0,1,1.35,6.422A16.074,16.074,0,0,1,12,30.478V91.49H67.482a6.356,6.356,0,0,1-.893-3.211V80.755a19.246,19.246,0,0,1,9.633-37.142V20.845Z" transform="translate(-12 -8)" fill="#f0f0f0"/></g><g transform="translate(70.646 73.857)"><path d="M51.211,66.056a3.21,3.21,0,0,0,3.211-3.211V50H48V62.845A3.21,3.21,0,0,0,51.211,66.056Z" transform="translate(-48 -50)" fill="#505050"/></g><g transform="translate(70.646 73.857)"><path d="M51.211,62.845V50H48V62.845a3.192,3.192,0,0,0,4.817,2.766A3.2,3.2,0,0,1,51.211,62.845Z" transform="translate(-48 -50)" fill="#3c3c3c"/></g><g transform="translate(70.646 80.279)"><path d="M48,54h6.422v3.211H48Z" transform="translate(-48 -54)" fill="#fab400"/></g><g transform="translate(70.646 80.279)"><path d="M48,54h3.211v3.211H48Z" transform="translate(-48 -54)" fill="#dc9600"/></g><g transform="translate(57.801 44.956)"><path d="M56.056,64.112A16.056,16.056,0,1,1,72.112,48.056,16.074,16.074,0,0,1,56.056,64.112Z" transform="translate(-40 -32)" fill="#505050"/></g><g transform="translate(57.801 44.956)"><path d="M43.211,48.056a16.076,16.076,0,0,1,14.45-15.974,16.056,16.056,0,1,0,0,31.948A16.076,16.076,0,0,1,43.211,48.056Z" transform="translate(-40 -32)" fill="#3c3c3c"/></g><g transform="translate(61.012 48.167)"><circle cx="13" cy="13" r="13" transform="translate(-0.012 -0.167)" fill="#fab400"/></g><g transform="translate(25.689 22.478)"><path d="M20,18H58.534v6.422H20Z" transform="translate(-20 -18)" fill="#fa6450"/></g><g transform="translate(51.379 32.112)"><path d="M36,24H48.845v3.211H36Z" transform="translate(-36 -24)" fill="#d2d2d2"/></g><g transform="translate(51.379 38.534)"><path d="M36,28H48.845v3.211H36Z" transform="translate(-36 -28)" fill="#d2d2d2"/></g><g transform="translate(51.379 44.956)"><path d="M36,35.211h8.158A19.36,19.36,0,0,1,47.851,32H36Z" transform="translate(-36 -32)" fill="#d2d2d2"/></g><g transform="translate(51.379 51.379)"><path d="M36,39.211h4.335A19.176,19.176,0,0,1,41.817,36H36Z" transform="translate(-36 -36)" fill="#d2d2d2"/></g><g transform="translate(25.689 57.801)"><path d="M20,43.211H48.9A19.244,19.244,0,0,1,49.191,40H20Z" transform="translate(-20 -40)" fill="#d2d2d2"/></g><g transform="translate(25.689 64.223)"><path d="M20,47.211H50.024A19.16,19.16,0,0,1,49.178,44H20Z" transform="translate(-20 -44)" fill="#d2d2d2"/></g><g transform="translate(25.689 70.646)"><path d="M20,51.211H53.847A19.479,19.479,0,0,1,51.51,48H20Z" transform="translate(-20 -48)" fill="#d2d2d2"/></g><g transform="translate(64.223 6.422)"><path d="M44,8V20.845H56.845Z" transform="translate(-44 -8)" fill="#d2d2d2"/></g><g transform="translate(72.251 51.379)"><path d="M49,36h3.211v3.211H49Z" transform="translate(-49 -36)" fill="#f0f0f0"/></g><g transform="translate(70.646 57.801)"><path d="M54.422,43.211V40H48v3.211h1.606v6.422H48v3.211h6.422V49.633H52.817V43.211Z" transform="translate(-48 -40)" fill="#f0f0f0"/></g><g transform="translate(12.845 27.55)"><path d="M12,22.509V83.521h6.422V21.159A15.942,15.942,0,0,1,12,22.509Z" transform="translate(-12 -21.159)" fill="#d2d2d2"/></g><g transform="translate(0 0)"><circle cx="13" cy="13" r="13" fill="#3cc8b4"/></g><path d="M7.211,16.845A12.839,12.839,0,0,1,18.45,4.111a12.845,12.845,0,1,0,0,25.468A12.839,12.839,0,0,1,7.211,16.845Z" transform="translate(-4 -4)" fill="#1eaa96"/><g transform="translate(4.817 6.422)"><path d="M23.056,11.211l-9.633,9.633L7,14.422l3.211-3.211,3.211,3.211L19.845,8Z" transform="translate(-7 -8)" fill="#f0f0f0"/></g><g transform="translate(25.689 32.112)"><path d="M20,24H42.478V46.478H20Z" transform="translate(-20 -24)" fill="#008c78"/></g><g transform="translate(25.689 41.745)"><path d="M20,36.422v6.422H39.267L26.422,30Z" transform="translate(-20 -30)" fill="#1eaa96"/></g><g transform="translate(28.9 41.745)"><path d="M34.845,30,22,42.845H41.267V36.422Z" transform="translate(-22 -30)" fill="#3cc8b4"/></g><g transform="translate(33.717 35.323)"><path d="M28.211,32.422a3.211,3.211,0,1,1,3.211-3.211A3.21,3.21,0,0,1,28.211,32.422Z" transform="translate(-25 -26)" fill="#fab400"/></g></g></g></svg>