<svg xmlns="http://www.w3.org/2000/svg" width="89.913" height="89.913" viewBox="0 0 89.913 89.913"><path d="M96.4,53.2A43.2,43.2,0,1,1,53.2,10,43.2,43.2,0,0,1,96.4,53.2Zm0,0" transform="translate(-8.244 -8.244)" fill="#cbe558"/><path d="M153.788,139.848l-20.927,20.927-9.161-9.161-9.934,9.934,9.161,9.161,9.934,9.934,30.861-30.861Zm0,0" transform="translate(-93.787 -115.289)" fill="#fff"/><path d="M124.617,174.155a1.756,1.756,0,0,1-1.242-.514L104.28,154.546a1.756,1.756,0,0,1,0-2.484l9.934-9.934a1.756,1.756,0,0,1,2.484,0l7.919,7.919L144.3,130.362a1.756,1.756,0,0,1,2.484,0l9.934,9.934a1.755,1.755,0,0,1,0,2.483l-30.861,30.861A1.755,1.755,0,0,1,124.617,174.155ZM108.006,153.3l16.611,16.611,28.378-28.378-7.45-7.451-19.686,19.685a1.755,1.755,0,0,1-2.483,0l-7.919-7.919Zm0,0" transform="translate(-85.543 -107.045)"/><path d="M44.945,89.912q-1.72,0-3.446-.132a44.947,44.947,0,1,1,40-18.621,1.756,1.756,0,0,1-2.852-2.05,41.444,41.444,0,1,0-9.533,9.533,1.756,1.756,0,0,1,2.05,2.852A44.95,44.95,0,0,1,44.945,89.912Zm0,0"/><path d="M421.709,423.465a1.757,1.757,0,1,1,1.242-.514A1.769,1.769,0,0,1,421.709,423.465Zm0,0" transform="translate(-346.205 -346.205)"/></svg>