<svg xmlns="http://www.w3.org/2000/svg" width="68.48" height="68.48" viewBox="0 0 68.48 68.48"><g transform="translate(-605.546 -1701)"><circle cx="34.24" cy="34.24" r="34.24" transform="translate(605.546 1701)" fill="#f9f9f9"/><g transform="translate(617.546 1713)"><path d="M37.765,54.382H27L27.673,49h9.419Z" transform="translate(-7.853 -15.051)" fill="#acabb1"/><path d="M37.506,50.346H27.75L27.918,49h9.419Z" transform="translate(-8.098 -15.051)" fill="#898890"/><path d="M43.986,13.691V31.184H9V13.691A2.691,2.691,0,0,1,11.691,11h29.6A2.691,2.691,0,0,1,43.986,13.691Z" transform="translate(-1.963 -2.618)" fill="#5aaae7"/><path d="M15,11h1.346V31.184H15Z" transform="translate(-3.926 -2.618)" fill="#3d9ae2"/><path d="M39.147,58.346A1.35,1.35,0,0,1,37.8,59.691H24.346a1.346,1.346,0,1,1,0-2.691H37.8a1.356,1.356,0,0,1,1.346,1.346Z" transform="translate(-6.544 -17.669)" fill="#898890"/><path d="M43.986,41v2.691a2.691,2.691,0,0,1-2.691,2.691h-29.6A2.691,2.691,0,0,1,9,43.691V41Z" transform="translate(-1.963 -12.434)" fill="#c6c5ca"/><path d="M47.673,3l3.364,4.037H48.346A1.35,1.35,0,0,1,47,5.691V3Z" transform="translate(-14.397)" fill="#bcbec0"/><path d="M41.221,7.037v21.53H17V5.691A2.691,2.691,0,0,1,19.691,3H37.184V5.691A1.35,1.35,0,0,0,38.53,7.037Z" transform="translate(-4.581)" fill="#e6e7e8"/><path d="M34.382,13a5.382,5.382,0,1,0,5.382,5.382A5.382,5.382,0,0,0,34.382,13Z" transform="translate(-8.507 -3.272)" fill="#d8d7da"/><path d="M32.38,11v5.382L28.572,20.19A5.382,5.382,0,0,1,32.38,11Z" transform="translate(-7.851 -2.618)" fill="#00ccb3"/><path d="M33.148,19H38.53a5.382,5.382,0,0,1-9.19,3.808Z" transform="translate(-8.618 -5.235)" fill="#5aaae7"/><path d="M40.382,16.382H35V11A5.382,5.382,0,0,1,40.382,16.382Z" transform="translate(-10.47 -2.618)" fill="#ffd422"/><path d="M35.074,49h-7.4L27,54.382h5.409l.74-.74-1.843-2.456a8.47,8.47,0,0,0,.72-1.749Z" transform="translate(-7.853 -15.051)" fill="#898890"/><path d="M25.416,36.233l1.843-2.456-2.853-2.853-2.456,1.843a8.47,8.47,0,0,0-1.749-.72L19.765,29H15.728l-.437,3.048a8.47,8.47,0,0,0-1.749.72l-2.456-1.843L9,33.01V34.8l1.076,1.433a8.8,8.8,0,0,0-.4.841H25.82a8.8,8.8,0,0,0-.4-.841Z" transform="translate(-1.963 -8.507)" fill="#d8d7da"/><path d="M24.346,57a1.346,1.346,0,0,0,0,2.691h.2l.242-1.7a8.47,8.47,0,0,0,1.749-.72l2.456,1.843L31.1,57Z" transform="translate(-6.544 -17.669)" fill="#787680"/><path d="M29.184,42.346l-3.048-.437A8.524,8.524,0,0,0,25.82,41H9.673a8.525,8.525,0,0,0-.316.908L9,41.962v1.729a2.691,2.691,0,0,0,2.691,2.691H29.184Z" transform="translate(-1.963 -12.434)" fill="#acabb1"/><path d="M22.827,40.893a8.47,8.47,0,0,1-.72,1.749L23.951,45.1,21.1,47.951l-2.456-1.843a8.47,8.47,0,0,1-1.749.72l-.437,3.048H12.419l-.437-3.048a8.47,8.47,0,0,1-1.749-.72L7.777,47.951,4.924,45.1l1.843-2.456a8.47,8.47,0,0,1-.72-1.749L3,40.456V36.419l3.048-.437a8.47,8.47,0,0,1,.72-1.749L4.924,31.777l2.853-2.853,2.456,1.843a8.47,8.47,0,0,1,1.749-.72L12.419,27h4.037l.437,3.048a8.47,8.47,0,0,1,1.749.72L21.1,28.924l2.853,2.853-1.843,2.456a8.47,8.47,0,0,1,.72,1.749l3.048.437v4.037Z" transform="translate(0 -7.853)" fill="#ff9811"/><circle cx="4.5" cy="4.5" r="4.5" transform="translate(10 26.022)" fill="#ffd422"/><path d="M53,11h1.346V31.184H53Z" transform="translate(-16.36 -2.618)" fill="#3d9ae2"/><path d="M54,44h1.346v1.346H54Z" transform="translate(-16.687 -13.415)" fill="#acabb1"/><g transform="translate(14.438 9.055)"><path d="M46,13h2.691v1.346H46Z" transform="translate(-28.507 -12.327)" fill="#bcbec0"/><path d="M46,17h2.691v1.346H46Z" transform="translate(-28.507 -13.636)" fill="#bcbec0"/><path d="M20,12h2.691v1.346H20Z" transform="translate(-20 -12)" fill="#bcbec0"/><path d="M20,16h2.691v1.346H20Z" transform="translate(-20 -13.309)" fill="#bcbec0"/><path d="M42,27h1.346v1.346H42Z" transform="translate(-27.198 -16.908)" fill="#bcbec0"/><path d="M46,27h2.691v1.346H46Z" transform="translate(-28.507 -16.908)" fill="#bcbec0"/><path d="M42,31h5.382v1.346H42Z" transform="translate(-27.198 -18.217)" fill="#bcbec0"/></g></g></g></svg>