<svg xmlns="http://www.w3.org/2000/svg" width="68.48" height="68.48" viewBox="0 0 68.48 68.48"><g transform="translate(-605.546 -1805)"><circle cx="34.24" cy="34.24" r="34.24" transform="translate(605.546 1805)" fill="#f9f9f9"/><g transform="translate(595.049 1794.5)"><path d="M76.833,80.01H107.7a1.693,1.693,0,0,0,1.693-1.693V47.167H82.758l-5.925,5.925Z" transform="translate(-46.991 -19.833)" fill="#f1e8dc"/><circle cx="0.635" cy="0.635" r="0.635" transform="translate(57.516 28.985)" fill="#9a99a1"/><circle cx="0.635" cy="0.635" r="0.635" transform="translate(50.829 28.985)" fill="#9a99a1"/><circle cx="0.635" cy="0.635" r="0.635" transform="translate(44.142 28.985)" fill="#9a99a1"/><circle cx="0.635" cy="0.635" r="0.635" transform="translate(37.455 28.985)" fill="#9a99a1"/><path d="M0,0H4.4V2.539a.423.423,0,0,1-.423.423H.423A.423.423,0,0,1,0,2.539Z" transform="translate(48.894 40.938) rotate(90)" fill="#54c1ed"/><path d="M.423,0H10.665a.423.423,0,0,1,.423.423V2.963H.423A.423.423,0,0,1,0,2.539V.423A.423.423,0,0,1,.423,0Z" transform="translate(57.782 34.251) rotate(90)" fill="#f4644d"/><path d="M0,0H6.6V2.963H.423A.423.423,0,0,1,0,2.539Z" transform="translate(51.857 38.737) rotate(90)" fill="#8bc932"/><path d="M0,0H8.888V2.963H.423A.423.423,0,0,1,0,2.539Z" transform="translate(54.82 36.452) rotate(90)" fill="#f9d36b"/><path d="M81.062,116.627H76.83V89.709l2.539-2.539v27.764A1.694,1.694,0,0,0,81.062,116.627Z" transform="translate(-46.988 -56.45)" fill="#efdbc6"/><path d="M76.833,53.093h4.232A1.693,1.693,0,0,0,82.758,51.4V47.168Z" transform="translate(-46.991 -19.834)" fill="#e5cfbd"/><g transform="translate(33.118 35.714)"><path d="M125.48,181.438h-9.311a.635.635,0,0,1,0-1.27h9.311a.635.635,0,0,1,0,1.27Z" transform="translate(-115.534 -177.29)" fill="#9a99a1"/><path d="M160.2,215.439H156.89a.635.635,0,0,1,0-1.27H160.2a.635.635,0,0,1,0,1.27Z" transform="translate(-152.808 -208.413)" fill="#9a99a1"/><path d="M117.651,215.439H116.17a.635.635,0,0,1,0-1.27h1.481a.635.635,0,0,1,0,1.27Z" transform="translate(-115.535 -208.413)" fill="#9a99a1"/><path d="M151.11,147.434h-6.941a.635.635,0,1,1,0-1.27h6.941a.635.635,0,1,1,0,1.27Z" transform="translate(-141.164 -146.164)" fill="#9a99a1"/><circle cx="0.635" cy="0.635" r="0.635" transform="translate(0.635 0)" fill="#9a99a1"/><circle cx="0.635" cy="0.635" r="0.635" transform="translate(8.676 5.756)" fill="#9a99a1"/><path d="M289.356,341.27h-9.311a.635.635,0,0,1,0-1.27h9.311a.635.635,0,0,1,0,1.27Z" transform="translate(-265.538 -323.592)" fill="#9a99a1"/><path d="M324.079,375.27h-3.312a.635.635,0,1,1,0-1.27h3.312a.635.635,0,1,1,0,1.27Z" transform="translate(-302.814 -354.714)" fill="#9a99a1"/><path d="M281.527,375.27h-1.481a.635.635,0,0,1,0-1.27h1.481a.635.635,0,1,1,0,1.27Z" transform="translate(-265.539 -354.714)" fill="#9a99a1"/><path d="M314.986,307.27h-6.941a.635.635,0,0,1,0-1.27h6.941a.635.635,0,0,1,0,1.27Z" transform="translate(-291.168 -292.47)" fill="#9a99a1"/><circle cx="0.635" cy="0.635" r="0.635" transform="translate(14.506 13.529)" fill="#9a99a1"/><circle cx="0.635" cy="0.635" r="0.635" transform="translate(22.548 19.286)" fill="#9a99a1"/></g><path d="M45.389,262.7v-2.5a.846.846,0,0,0-.77-.843l-1.868-.17a7.565,7.565,0,0,0-.541-1.3l1.2-1.443a.846.846,0,0,0-.052-1.14l-1.771-1.771a.846.846,0,0,0-1.14-.052l-1.443,1.2a7.565,7.565,0,0,0-1.3-.541l-.17-1.868a.846.846,0,0,0-.843-.77h-2.5a.846.846,0,0,0-.843.77l-.17,1.868a7.565,7.565,0,0,0-1.3.541l-1.443-1.2a.846.846,0,0,0-1.14.052L27.525,255.3a.846.846,0,0,0-.052,1.14l1.2,1.443a7.565,7.565,0,0,0-.541,1.3l-1.868.17a.846.846,0,0,0-.77.843v2.5a.846.846,0,0,0,.77.843l1.868.17a7.567,7.567,0,0,0,.541,1.3l-1.2,1.443a.846.846,0,0,0,.052,1.14l1.771,1.771a.846.846,0,0,0,1.14.052l1.443-1.2a7.565,7.565,0,0,0,1.3.541l.17,1.868a.846.846,0,0,0,.843.77h2.5a.846.846,0,0,0,.843-.77l.17-1.868a7.565,7.565,0,0,0,1.3-.541l1.443,1.2a.846.846,0,0,0,1.14-.052l1.771-1.771a.846.846,0,0,0,.052-1.14l-1.2-1.443a7.567,7.567,0,0,0,.541-1.3l1.868-.17a.846.846,0,0,0,.77-.843Zm-9.946,2.348a3.6,3.6,0,1,1,3.6-3.6,3.6,3.6,0,0,1-3.6,3.6Z" transform="translate(0 -206.867)" fill="#46bee8"/><path d="M48.542,272.771l-1.772,1.772a.846.846,0,0,0-.052,1.14l1.2,1.442a7.679,7.679,0,0,1,3.2-3.2l-1.442-1.2a.846.846,0,0,0-1.14.052Z" transform="translate(-19.246 -226.113)" fill="#17afde"/><path d="M47.921,411.12l-1.2,1.442a.846.846,0,0,0,.052,1.14l1.772,1.771a.846.846,0,0,0,1.14.052l1.442-1.2A7.679,7.679,0,0,1,47.921,411.12Z" transform="translate(-19.246 -352.978)" fill="#17afde"/><path d="M27.794,344.505a7.647,7.647,0,0,1,.342-2.265l-1.866.17a.846.846,0,0,0-.769.843v2.5a.846.846,0,0,0,.769.843l1.866.17A7.647,7.647,0,0,1,27.794,344.505Z" transform="translate(-0.003 -289.929)" fill="#17afde"/><path d="M92.656,314a4.656,4.656,0,1,0,4.656,4.656A4.656,4.656,0,0,0,92.656,314Zm0,6.772a2.116,2.116,0,1,1,2.116-2.116A2.116,2.116,0,0,1,92.656,320.772Z" transform="translate(-57.212 -264.079)" fill="#17afde"/><path d="M436.5,100.5v17.461l1.732,3.722a.423.423,0,0,0,.767,0l1.732-3.722V100.5Z" transform="translate(-376.213 -68.651)" fill="#ffb155"/><path d="M440.732,29.309H436.5V27.616a2.116,2.116,0,1,1,4.232,0Z" transform="translate(-376.213)" fill="#f4644d" fill-rule="evenodd"/><path d="M436.5,70.5h4.232v2.539H436.5Z" transform="translate(-376.213 -41.191)" fill="#e6f0f6"/><path d="M436.5,70.5h1.693v2.539H436.5Z" transform="translate(-376.213 -41.191)" fill="#aacfe2"/><path d="M439.463,120.689l-.463.995a.423.423,0,0,1-.767,0l-1.733-3.722V100.5h1.693v17.462Z" transform="translate(-376.213 -68.652)" fill="#f19b40"/><path d="M438.193,26v3.767H436.5V28.074A2.117,2.117,0,0,1,438.193,26Z" transform="translate(-376.213 -0.458)" fill="#e8533a" fill-rule="evenodd"/></g></g></svg>