<svg xmlns="http://www.w3.org/2000/svg" xmlns:xlink="http://www.w3.org/1999/xlink" width="1329.146" height="1609.149" viewBox="0 0 1329.146 1609.149">
  <defs>
    <linearGradient id="linear-gradient" x1="0.5" y1="1" x2="0.5" y2="0.185" gradientUnits="objectBoundingBox">
      <stop offset="0" stop-color="#d2e1f1" stop-opacity="0.361"/>
      <stop offset="1" stop-color="#4679ac" stop-opacity="0.02"/>
    </linearGradient>
    <linearGradient id="linear-gradient-2" x1="0.5" x2="0.5" y2="1" gradientUnits="objectBoundingBox">
      <stop offset="0" stop-color="#fff"/>
      <stop offset="1" stop-color="#edf3f9"/>
    </linearGradient>
    <linearGradient id="linear-gradient-3" x1="0.5" y1="1" x2="0.5" gradientUnits="objectBoundingBox">
      <stop offset="0" stop-color="#f6f6f6" stop-opacity="0"/>
      <stop offset="1" stop-color="#eae8e8"/>
    </linearGradient>
  </defs>
  <g id="Grupo_875986" data-name="Grupo 875986" transform="translate(-136 -192.138)">
    <rect id="Rect치ngulo_51707" data-name="Rect치ngulo 51707" width="1328" height="1347.286" transform="translate(1464 1801.286) rotate(180)" fill="url(#linear-gradient)"/>
    <rect id="Rect치ngulo_51708" data-name="Rect치ngulo 51708" width="1328" height="193" transform="translate(136 369)" fill="url(#linear-gradient-2)"/>
  </g>
  <g id="Grupo_886360" data-name="Grupo 886360" transform="translate(1.146 0)">
    <g id="Grupo_78341" data-name="Grupo 78341" transform="translate(0 0)">
      <path id="Trazado_113528" data-name="Trazado 113528" d="M2.235-1559.781s-85.629-13-277.3,94.465-619.909-44.226-717.229-61.456-270.688,3.478-333.475,48.072v296.48h1328Z" transform="translate(1325.765 1560.275)" opacity="0.531" fill="url(#linear-gradient-3)" style="mix-blend-mode: multiply;isolation: isolate"/>
      <path id="Trazado_113527" data-name="Trazado 113527" d="M2.235-1560.275s-223.333,166.222-536.471,86.756c-162.832-41.322-330.233-4.729-456.956,0-117.471,4.384-194.5-22.768-334.574-61.927v316.619h1328Z" transform="translate(1325.765 1583.661)" opacity="0.63" fill="url(#linear-gradient-3)" style="mix-blend-mode: multiply;isolation: isolate"/>
    </g>
  </g>
</svg>
